<?xml version="1.0" encoding="UTF-8"?>
<!DOCTYPE svg  PUBLIC '-//W3C//DTD SVG 1.1//EN'  'http://www.w3.org/Graphics/SVG/1.1/DTD/svg11.dtd'>
<svg version="1.1" viewBox="0 0 680 688" xmlns="http://www.w3.org/2000/svg">
<path d="m93.084 146.94s8.928 100.8-15.84 104.25c0 0-24.767 1.728-29.951-31.967 0 0-20.448-84.094 6.336-96.477 0 0 11.52-11.52 3.456-21.312 0 0-12.384-12.383-29.952 3.456 0 0-24.768 22.175-15.84 104.25 0 0 16.704 92.734 69.119 90.142 0 0 23.904-6.048 25.632-14.112l3.456 108s9.792 29.952 3.456 52.991c0 0-7.2 64.51 10.656 110.59 0 0-1.728 52.991 33.696 60.19 0 0 76.895 12.384 80.351-8.063l-3.456-23.04s27.36-14.111 25.632-40.607c0 0-47.808-79.486-18.432-122.11 0 0 49.536-26.496 50.4-52.127 0 0 29.087 29.951 74.303 15.84 0 0 23.04 19.583 37.152 15.839 0 0 7.2 83.23-28.224 141.4 0 0-30.816 49.535-6.048 72.574 0 0 11.52-0.864 21.312 14.112l66.239 5.184s21.312-9.792 8.064-36.287l-24.768-25.631 11.52-38.015s19.584 35.423 21.312 57.598c0 0 0 20.448 4.32 27.359 0 0-12.384 46.079 10.656 48.671 0 0 31.968 20.447 56.735 5.184 0 0 37.152 0.864 43.488-14.112 0 0 8.064-24.767-14.976-46.943 0 0-58.463-117.5-52.991-167.04 0 0 15.84-82.366 33.695-114.04 0 0 2.016-0.576 5.184-1.44 0.576-0.288 2.304-4.32 3.168-4.608s0.864 3.456 1.728 2.88c2.016-0.864 4.32-1.728 6.336-2.88 0.864-0.576 1.44-4.896 2.304-5.472 0.576-0.288 1.728 3.168 2.304 2.592 4.896-3.168 8.352-7.488 8.064-12.383 0 0 10.08 3.743 22.752 2.304 1.44-0.288-0.576-4.032 0.576-4.32s5.472 3.168 6.624 2.88c0.864-0.288 0.576-5.472 1.728-5.76 0.864-0.288 3.168 4.032 4.032 3.744 1.152-0.576 1.44-3.456 2.88-4.32 0.576-0.288 2.304 1.44 2.88 1.152 0.864-0.576 2.016-1.44 2.88-2.304 0.864-0.576 1.152-5.76 2.016-6.624 0.576-0.576 2.016 2.88 2.88 2.304 0.864-0.864 1.152-5.472 1.728-6.624 1.44 0.576 4.608-2.016 2.304 1.44 1.152-1.728 2.592-3.744 3.744-6.048 0.288-0.576-0.288-4.608 0-5.184 0.576-0.864 2.016 1.44 2.304 0.288 0 0 0-6.048 1.44-8.639 0.576-1.152 2.016 2.303 2.592 1.152 0.864-1.728 0.576-6.912 1.44-8.928 0.864-1.728 2.88 0.288 3.456-1.728 3.456-7.776 6.911-17.28 9.503-28.223 0.288-0.864-2.016-2.016-1.728-3.168 0.289-0.864 2.592-1.728 2.88-2.592 4.032-21.024 3.168-45.215-11.231-66.239l9.791-28.223-0.864-9.792s23.04-50.398-8.063-60.19c0 0-37.152-14.112-58.464 31.967 0 0-29.952-27.359-72.575-24.767 0 0-52.992-40.607-98.207 1.728 0 0-16.704 6.336-54.72-20.448 0 0-63.647-54.718-163.58-40.607 0 0-115.78 20.448-109.73 131.04z" fill="#373435"/>
<path d="m591.9 103.74c-44.352-32.831-76.031-24.767-76.031-24.767-61.92-33.695-88.416 0.864-88.416 0.864-27.359 8.064-59.327-13.248-59.327-13.248-74.303-63.646-161.86-45.215-161.86-45.215-105.12 27.36-108.86 103.39-108.86 103.39l9.792 145.15 7.2 120.38 7.2 38.878-2.592 16.704c-11.52 46.079 15.84 143.42 15.84 143.42 8.064 25.632 24.768 18.72 24.768 18.72l10.656-14.112 5.184 11.52c1.728 7.2 16.703 2.592 16.703 2.592 7.2-2.592 4.32-17.568 4.32-17.568l8.064 16.704c3.456 5.184 8.928 0.864 8.928 0.864l8.064-18.72 3.456 19.584c18.432-15.84-18.432-38.015-18.432-38.015-36.287-7.2-32.831-79.486-32.831-79.486 10.656-48.671 36.287-183.16 36.287-183.16s50.4 47.806 82.368 57.598c0 0 39.743 29.087 74.303 15.84l48.672 21.311s14.975 100.8 39.743 132.76c0 0 27.36 58.462 24.768 83.229 0 0-5.184 45.215 7.2 47.807 0 0 7.2-15.839 7.2-25.631v9.792l8.928-18.432v35.423s8.928 8.064 15.84 4.32l6.048-23.903 1.728 23.903s7.2 3.456 8.928-3.456v-22.175s2.591 24.767 15.839 22.175l4.32-24.767 10.656 21.311s18.72 0.864 13.248-19.583c0 0-6.336-23.04-15.84-31.967 0 0-56.735-124.7-52.991-163.58 0 0 18.432-91.006 35.423-117.79 0 0-40.607 4.32-56.735-32.831 0 0-58.464-3.456-55.584-82.366 0 0 4.32-32.831 21.312-54.718l-6.048-14.976-4.32-19.584s-20.448-27.359-0.864-46.078c0 0 11.52-31.967 60.192 8.063 0 0 44.351-6.335 88.415 14.112z" fill="#E5AC50"/>
<path d="m561.94 623.28s-13.248-11.807-63.647 7.2c0 0 21.888-15.263 58.463-13.823 0 0 14.688 0.575 5.184 6.623z" fill="#FEFEFE"/>
<path d="m286.62 368.69s-10.08 38.591-48.384 50.399c0 0-35.136 28.511 10.656 120.67 0 0 17.28 10.368-1.728 29.088-0.288 0.288 2.304-18.72 2.016-18.144-0.576 0.576-4.32 20.448-5.184 21.312-2.592 2.304-5.472 4.607-9.216 6.911l-4.608 1.728 8.064-30.239s-11.52 30.239-12.96 28.799c-1.728-1.728-4.608-4.607-8.064-7.199-0.576-0.576 0-22.176-0.576-22.464-0.576-0.576-2.016 20.448-2.592 19.872-6.048-4.896-13.248-9.504-17.568-9.504 0 0-16.703-19.872-15.263-49.823l-0.576-36.575 12.671-57.598 18.432-98.782s41.76 42.335 74.88 51.839z" fill="#FEFEFE"/>
<path d="m407.29 406.42s4.032 85.534-33.12 150.62c0 0-25.344 42.335 0 57.022 0 0 27.648-6.623 33.408-17.279 5.184 14.112-16.992 27.647-15.552 31.103l14.112 1.44 11.52-4.32 11.807-25.055-8.063 31.103 18.143 2.016 8.928-31.391-1.728 32.255 7.488 0.864s14.688-13.248 5.184-31.103c0 0-10.08-20.448-32.544-23.328l-13.823-4.608 22.463 2.016 9.216-45.214s-27.935-63.647-32.543-125.28l-5.184-0.576z" fill="#FEFEFE"/>
<path d="m98.844 214.62 5.184 67.678s-58.463 43.775-80.351-50.974c0 0-35.424-87.838 15.84-129.02 0 0 24.192-3.168 9.504 12.96 0 0-30.528 11.231-6.624 108 0 0 13.248 43.775 39.743 32.543 0 0 10.656-3.456 16.704-41.183z" fill="#D19D4B"/>
<path d="m534.01 360.05-8.064 9.216-2.592-16.704-3.456-13.247-10.656 6.048-7.2-13.824-13.248 12.672s-29.088 62.206-13.248 98.205l50.4 137.95 19.871 23.904 4.032-4.608 5.184 9.216 1.44-8.064s-49.535-122.11-46.079-151.2l23.328-89.566z" fill="#FEFEFE"/>
<path d="m415.07 402.68s-18.432-81.214-34.272-91.005l-18.432 8.639-15.84-5.183-6.048 10.079-13.248-14.687-12.672 13.247-21.311 1.44-6.624 11.232-9.216-4.032-10.08 9.216-8.064 7.2s23.616 14.399 32.832 16.703c0 0 35.423 29.951 74.303 15.84l48.672 21.311z" fill="#FEFEFE"/>
<path d="m207.13 320.02s-21.888 11.808-27.935 27.072l-12.672 14.687-5.184 15.84-6.048-1.44-1.44 36.575-8.64 52.414-5.184 35.712-12.672-6.048-3.456 16.703-2.016 17.28 9.216 50.974s6.336 34.847 28.224 27.648l8.928-13.824 10.08 14.688s4.608 2.592 17.279-4.032l0.576-11.808 10.656 15.84s6.048 2.016 9.216-6.624l5.184-12.96 3.456 19.584s13.248-9.216-2.016-25.344c0 0-10.656-13.823-25.92-15.839 0 0-25.919-14.688-23.327-74.878l33.119-172.51z" fill="#FEFEFE"/>
<path d="m437.82 514.42-12.672 29.087-0.576-8.063-10.655 31.967-8.064-13.248-13.248 16.704-8.064-4.608-7.2 8.64-5.184-13.248s39.168-59.615 35.136-155.23l5.184 0.576s1.44 34.559 25.343 107.42z" fill="#D19D4B"/>
<path d="m183.23 461.43 14.687-31.104 4.032 23.904 20.448-19.872 3.456 17.28s5.184-26.495 12.672-32.543c0 0 34.56-6.624 48.384-50.399 0 0-29.088-5.184-74.88-51.839 0 0-22.464 119.52-28.511 144.57z" fill="#D19D4B"/>
<path d="m444.44 189.85c-1.728 2.592-2.304 5.184-2.304 5.184l0.576 3.744-3.456 3.168 2.304 1.727-4.32 5.184 2.016 0.864-4.32 4.896 1.728 0.576 0.288 3.744c-4.32 29.951 10.944 50.399 10.944 50.399l2.304 2.304 3.744 0.864-2.592 2.016 4.608 1.728 6.336 2.304-2.592 3.455h8.64l-2.304 4.032 5.184-2.016-1.44 2.88 26.496 8.928 3.456 10.08 3.168-5.76 4.32 14.976 3.168-5.184 2.304 10.943 3.168-5.183 3.456 8.063 3.168-5.184 3.456 7.488 6.624-3.168 3.168 4.896 8.063-5.184 5.76 4.32 3.168-4.32 3.456 3.456 5.184-7.2 4.896 4.896 4.032-6.624 3.456 2.304 2.304-5.759 2.304 1.44 0.576-7.2s6.048-3.168 12.96 0.864l8.352 0.864-2.304-5.76 10.944 3.456 1.44-8.064 5.184 4.032 3.168-4.32 4.896 2.592 0.864-6.624 2.592-8.064 0.864 7.488 2.592-11.52 3.456 4.896 1.728-12.383 3.168 4.895 0.864-9.791 4.032 1.728-0.576-11.52 4.032 2.592v-8.928l4.032-0.864 0.864-6.624 2.592-6.623-0.865-7.2 2.304-3.456s7.2-26.496-3.455-47.231c-10.944-23.903-51.264-60.478-51.264-60.478 15.552 5.184 42.048 42.047 42.048 42.047l9.216-17.568c7.199-8.064 2.303-18.719 2.303-18.719l6.048-18.144c0-25.343-16.415-32.255-16.415-32.255-30.816-13.248-54.72 31.967-54.72 31.967l-1.44-4.32s-48.672-20.735-84.095-8.352c0 0-27.072-29.087-52.992-12.959l-12.96 19.007s-0.864 7.2 13.248 17.28c0 0-8.352 30.815 24.192 31.967 0 0-14.112 2.304-19.008 14.687l-7.2 13.824-1.728 6.048-0.864 12.672 2.016 0.576-1.728 8.927 2.016-2.304-2.304 8.928 2.88-0.576-2.592 9.504 2.88-1.44-2.592 8.064 2.88-0.288-2.016 6.912 2.016 0.288-1.44 10.367 2.592-4.032-2.592 10.944 2.592-1.728-2.304 5.76-2.304-3.456 1.44-6.048-1.728 0.576 0.864-10.943-1.728 0.288 0.864-7.2-2.304-1.728 1.44-3.744-1.44-2.016 2.016-8.352-2.304-0.576 0.576-5.184-1.44-0.864 2.304-8.639-1.728-2.304-0.576-9.216z" fill="#E5AC50"/>
<path d="m652.66 182.94c10.655 20.735 3.455 47.231 3.455 47.231l-2.304 3.456 0.865 7.199-2.592 6.624-0.864 6.624-4.032 0.864v8.928l-4.032-2.592 0.576 11.52-4.032-1.728-0.864 9.791-3.168-4.895-1.728 12.383-3.456-4.896-2.592 11.52-0.864-7.488-2.592 8.064-0.864 6.624-4.896-2.592-3.168 4.32-5.184-4.032-1.44 8.064-10.944-3.456 2.304 5.76-8.352-0.864c-6.624-4.032-12.96-0.864-12.96-0.864l-0.576 7.199-2.304-1.439-2.304 5.759-3.456-2.304-4.032 6.624-4.896-4.896-5.184 7.2-3.456-3.456-3.168 4.32-5.76-4.32-8.063 5.184-3.168-4.896-6.624 3.168-3.456-7.488-3.168 5.184-3.456-8.064-3.168 5.184-2.304-10.943-3.168 5.183-4.32-14.975-3.168 5.76-3.456-10.08-26.496-8.928 1.44-2.88-5.184 2.016 2.304-4.032h-8.64l2.592-3.456-6.336-2.303-4.608-1.728 2.592-2.016-3.744-0.864-2.304-2.304s-15.264-20.448-10.944-50.399l-0.288-3.744-1.728-0.576 4.32-4.896-2.016-0.864 4.32-5.184-2.304-1.728 3.456-3.167-0.576-3.744s0.576-2.592 2.304-5.184l0.576 9.216 1.728 2.304-2.304 8.639 1.44 0.864-0.576 5.184 2.304 0.576-2.016 8.352 1.44 2.016-1.44 3.744 2.304 1.728-0.864 7.199 1.728-0.287-0.864 10.943 1.728-0.576-1.44 6.048 2.304 3.456 2.304-5.76-2.592 1.728 2.592-10.944-2.592 4.032 1.44-10.367-2.016-0.288 2.016-6.912-2.88 0.288 2.592-8.064-2.88 1.44 2.592-9.504-2.88 0.576 2.304-8.928-2.016 2.304 1.728-8.927-2.016-0.576 0.864-12.672 1.728-6.048 7.2-13.824 2.592 13.824s8.352-9.504 19.296-11.52l13.536-8.351 2.016-6.048s4.896-14.4 13.536-10.944l6.912 0.864 8.928 1.44-4.608 6.624 6.624 1.728s-8.928 12.959-9.216 27.071c0 0-4.032-10.656-6.336-4.32 0 0-9.216-6.048-4.32 4.896 0 0 11.232 8.64 2.88 12.96l-0.576 15.551s-5.184-0.288-6.048-6.624l-2.016-3.455s-10.368-3.744-11.232-9.216l-6.336-11.52-4.032 22.463-6.336 4.608 0.288 19.296 10.08 4.896 5.184 13.823 5.184 15.552 20.448 9.504 8.928-2.016s9.504 9.215 19.295 14.975l22.752-18.431s7.488-2.016 9.504 4.32l21.024-6.336 6.336-7.2-8.64-13.824-2.88-4.319 14.688-6.624 0.864-4.32-5.184-9.216s11.808-8.64 9.504-31.391l-6.624-0.576s-3.744 15.552-16.992 16.991c0 0 0.288 4.608-3.456 5.184 0 0-4.32 2.304-4.032-5.759l-11.52-1.728s0-10.368 6.624-18.144l1.728-2.88-0.288-6.624-8.928 3.456-3.744-19.007s4.896-4.896 8.064 0.288l-4.032-7.776s-2.592-6.912 1.728-6.336c0 0 26.496 3.744 32.544 18.144 0 0 11.52-2.88 18.432 9.215l17.28 32.543 6.336-15.551s10.079 7.2 8.352 25.343c0 0 3.455-6.048 0.863-29.087z" fill="#FEFEFE"/>
<path d="m525.37 301.01s6.336 8.928 16.991-0.576c0 0 9.504 9.504 17.856 4.032 0 0 0.576-5.76-6.624-8.352l-7.488-4.032v-7.488l6.336-6.048s17.568-10.943 17.28-22.175l-1.44-2.016-4.032 6.912-15.264 11.808-2.016 5.759-2.88 0.576-0.288-11.231s12.96-8.64 16.128-6.048c0 0 4.32-2.016-1.728-2.304 0 0-8.352 1.44-15.264 5.184 0 0-11.519-6.048-20.447-3.744 0 0 14.688 0.576 19.007 5.76v12.959s-4.319 0.288-4.607-4.031c0 0-3.744-5.76-7.2-7.2 0 0-9.216-2.304-10.368-14.4 0 0-4.608-2.016-3.744 5.76 0 0 4.608 9.504 16.704 16.992 0 0 4.608 7.487 9.503 8.639l-0.864 4.896s-10.943 6.048-15.263 10.368z" fill="#373435"/>
<path d="m611.19 127.35 2.304-6.047 4.032-5.76 0.864-4.032-7.2-0.576 8.64-4.896 11.808-5.76-4.608-1.728-11.808-0.288s17.28-17.279 26.208-16.991l-13.536 9.503s14.976-2.88 17.856 4.608l-0.576 8.928-13.248 1.44 4.32 4.608-12.96 0.288 8.352 5.184-9.504 2.016 6.048 4.032-4.896 1.728 3.456 2.591-2.88 2.88 4.608 2.88-4.896 3.744 3.744 6.624s-13.536-14.4-15.264-15.552z" fill="#FEFEFE"/>
<path d="m495.13 102.88-14.976-7.488-9.504-4.896-19.008 3.456 6.048 2.016-10.08 10.368 8.352-4.32 2.016 2.592-7.2 6.912 9.216-2.592 2.304 3.744-10.08 6.912 11.232-3.744 2.592 4.896-10.08 10.943 10.656-5.183 2.304 7.199 5.184 4.032h3.456l15.552-22.175s4.032-8.928 1.728-12.384z" fill="#FEFEFE"/>
<path d="m531.7 101.44s35.423 2.88 41.183 2.016c0 0-3.744-3.744-16.992-4.608 0 0-26.207-3.456-24.191 2.592z" fill="#373435"/>
<path d="m547.54 106.62s-21.023-6.336-34.559 4.896c0 0 6.336-2.592 19.872-1.728l13.823 0.864s10.08-4.32 21.888-0.576l17.28 3.744-10.656-5.184s-16.992-5.184-27.936-2.016z" fill="#373435"/>
<path d="m566.84 302.45s3.744 5.76 10.368 1.44l4.032 0.576 0.576-5.184 5.184-2.88 4.032-6.336 4.32-5.184 2.304-3.168 0.288-6.335 12.384-8.064 17.28-8.64 5.76-1.728 2.016-3.744 1.44-7.488 2.016-6.912 0.288-10.655s8.928-41.471-10.08-63.647c0 0-15.84-27.935-25.632-26.783 0 0 11.808 10.944 12.384 19.872l6.336 2.304-9.216 0.864s12.96 19.007 16.128 34.559l4.032 17.279 2.304 2.304-1.728 2.88-0.288 4.032 1.728 6.336-4.608-2.592-0.576 4.32-0.288 4.32-2.88-1.44s-6.048-5.184-4.608-11.232l2.304-2.016-2.88-2.88 0.576-2.88 4.032 2.016-2.88-6.048 0.864-4.896-1.728-7.199 1.44-3.744-2.88-2.592v-4.608l-2.592-3.456 0.576-4.032-4.32-4.032-2.304-2.88 4.032-0.576-4.608-3.744s-2.592-10.655-6.624-10.655c0 0-8.064-0.864-4.608 6.623l0.288 2.88s-8.064-6.335-11.808-1.728c0 0-6.048-14.687-21.888-16.127 0 0 10.08 16.991 9.504 28.223 0 0 2.592-16.127-2.016-21.887 0 0 10.944 2.016 8.928 14.975l-4.896 9.216s6.336-6.624 15.264-6.336c0 0 8.64 0 10.368-2.88 0 0 2.304 8.064-4.896 8.64 0 0-20.16-8.64-25.632 13.536l1.44 15.263 4.896 11.232s-2.016-16.704-0.288-21.599c0 0 14.688 3.455 18.72-13.536l1.728-0.288s3.744 15.264-15.264 16.991c0 0 6.336 4.608 15.552-5.183 0 0 7.2-2.016 7.2-9.216l2.304 2.88 1.44-8.352 4.032 11.808s9.504 23.903 0 30.239l-8.064 0.864-1.44-6.624s9.504-14.688 6.336-25.919c0 0-4.032 17.567-9.504 21.599l-0.576 2.016-7.776 0.864 8.352 4.032s4.608 7.2 2.016 8.64l-10.368-9.504 6.912 12.672s-4.608 3.456 5.184 2.016l6.912 0.288v6.623l-5.184-1.152 4.896 5.76-4.896 0.576 2.592 4.032-2.304 1.44-1.728-2.304 0.576 6.048 4.32-1.728 3.456-5.76 3.744-0.288 1.44-6.048 2.016-0.576 2.016 2.88-2.592 4.608-0.288 2.592-2.304 0.288-1.44 2.016-7.488 2.88-3.744 3.744h-0.864-1.44l2.304-24.479-5.184 6.911s-4.896-0.288-6.624-2.88l-6.336-12.671s4.32 21.311 11.232 27.071l1.44 6.336-3.744-0.288-7.488-7.2-0.288 4.032-4.32 1.728 6.624 2.304 0.864 3.456-23.328 8.64s19.584-2.016 25.92-6.048l9.216-3.456h11.808s-17.28 1.728-19.296 6.912l-1.728 4.32-31.392 7.775 21.6-2.016 4.896 2.016-4.608 4.32-8.064 7.2s-10.944 5.76-10.08 9.504z" fill="#373435"/>
<path d="m576.34 188.41s3.744 6.912 8.928 5.184c0 0 7.776-3.456 6.048-9.216 0 0-2.304-5.472-11.52 0 0 0-2.88 1.152-3.456 4.032z" fill="#B97542"/>
<path d="m579.8 186.97s2.304 6.048 6.048 1.152c0 0 2.304-2.592 1.728-6.048 0 0-9.504-0.864-7.776 4.896z" fill="#373435"/>
<path d="m546.68 133.98-1.152 22.752 1.728 7.2 3.744-6.624 10.08 4.32s5.184 13.823 0.576 28.223c0 0 8.928-13.824 6.336-26.207l-2.016-8.64-4.608-1.152-0.864-4.32-3.744 2.88-1.152-4.032-2.88 3.456-1.728-3.168-1.728-4.608 2.304-2.016v-4.32l-4.608-4.032z" fill="#373435"/>
<path d="m551.86 131.67 2.592 7.776s16.416 2.592 22.752 7.2l2.592-0.576 1.44 2.304 6.624-5.184-8.928-2.304-27.072-8.928z" fill="#373435"/>
<path d="m553.88 125.05s20.736 8.927 23.904 12.095c0 0 0.576-3.744-4.608-5.472 0 0 3.168-3.744 7.2 1.44l1.44 5.184s3.456-9.216-4.32-12.383c0 0-23.04-4.32-23.616-0.576z" fill="#373435"/>
<path d="m551.29 115.55s-2.592-1.728 3.456-2.304c0 0 13.824-2.304 19.584 2.016 0 0 4.896-0.288 9.504 3.168l2.304 2.016-4.608-0.864-1.44 0.864-4.608-3.456-3.456 1.152-15.84 0.288-4.608-2.88z" fill="#373435"/>
<path d="m543.22 115.26-0.576 7.2 2.592 1.44v6.047l3.744-5.471 2.016-1.728z" fill="#373435"/>
<path d="m517.59 118.43 2.88-1.152 6.624 1.152 6.048-0.864 4.32-0.288 1.439 2.016 0.864-3.168 1.152-2.592-2.303-0.864-4.896 0.864-5.472 0.864-10.656 0.576-3.744 3.744z" fill="#373435"/>
<path d="m537.46 123.04-4.032 1.44-0.576 2.304-6.336 3.167-7.2 2.304-3.456 1.44 3.168-3.168 1.44-3.456 5.184-2.879s8.064-2.592 11.808-1.152z" fill="#373435"/>
<path d="m537.46 132.83s-22.463 3.744-25.919 8.64l-4.608 4.32-2.592 2.304 8.928-1.44s20.736-10.656 23.904-10.656l0.287-3.456z" fill="#373435"/>
<path d="m542.36 133.4-2.303 4.32-0.576 4.32 0.864 6.336s-4.032 4.608-7.2 4.32l-5.472-2.304h-5.184-6.048s-6.048 0.288-7.776 4.032l-0.576 3.744 2.592 2.592-0.576 12.959 6.912-13.823 2.016-6.336 5.76 0.576s-11.808 7.776-8.64 21.311l3.456 14.688 1.44-6.336 1.152 12.672 1.44-12.672-0.576-8.064-2.304-8.928s0.576-8.927 8.64-6.623c0 0 12.096-1.728 12.383-6.336l0.289-2.88s2.303-11.808 0.864-17.568z" fill="#373435"/>
<path d="m506.07 159.03s-2.016 6.911-0.576 10.943l2.304 4.032 3.456 2.304-1.44 2.592-2.592-1.728-2.88-2.304-5.472-2.304-8.928-1.44-3.456 1.44 4.32 6.048s20.736-3.168 23.328 10.368l0.864 13.535-2.592-0.864s-3.168 7.2-3.744 8.928-1.44-12.959-1.44-12.959-13.824-0.576-14.688-13.824c0 0-9.216 6.336 10.656 15.552l0.576 7.199-4.608-3.744s-1.44 6.048-8.064 1.152l-6.336-5.471 8.064 4.031s4.032 2.304 4.608-1.152l-12.672-10.943-0.576-4.32s-7.488 11.232-1.44 18.143c0 0 6.912 7.488 11.808 7.2l2.592 0.576s-3.456 6.912-10.08 4.032c0 0-8.64-5.184-8.928-13.248 0 0-0.864-4.319 0.576-5.183l1.152-8.352 0.576-12.96s-4.896 2.016-5.76 23.328c0 0-1.44 20.159 1.728 23.903l5.76 0.864 0.576 2.304 1.728-0.576s3.456-7.488 8.928-7.488l2.016 0.288-3.456 4.032 7.2 0.288s-5.184 10.944-12.672 12.384l2.304 7.199s6.912-3.744 8.064-10.367c0 0-0.288 11.519-3.744 18.719l-0.288 4.896s-10.08-7.776-10.08-23.903c0.288-16.128 0-0.576 0-0.576s-7.488 1.44-6.048 7.487l5.472 7.488s4.32 8.064-3.744 1.152c0 0-7.2-3.744-8.928-19.007 0 0-6.048-46.367 15.84-67.102l10.368-10.368-5.76 14.399 1.44 3.168 6.336-3.456 3.456 3.456 1.728 0.288s0.576-9.503 2.88-9.503z" fill="#373435"/>
<path d="m502.9 276.25s20.736 3.167 25.632 8.351c0 0-16.704-4.32-22.176-1.44 0 0 0.576 8.64 21.312 6.624 0 0-13.536 4.32-22.464 0.864l1.728 4.032 10.656 0.576 12.96-1.728-9.792 10.08-4.032 3.456-9.504-1.728-0.864-3.456-4.32-3.744-2.016 0.864-2.592-7.2-3.456-1.152-2.592-12.096-0.864-2.591s-6.336-2.88-8.352-10.08l-9.216 0.576-2.016-3.168-7.776-4.032-2.304-7.2-0.288-4.32h-2.592l2.016-3.456-0.288-4.895-3.168 1.439 2.304-6.335-0.864-5.472-3.456 0.864 3.456-5.472-1.44-2.592-2.304 0.576 2.016-4.32 1.728-7.2-3.168-1.152 2.592-4.32v-3.743l-4.032 0.575 3.456-6.335 3.456-10.08-3.168 0.864s5.472-24.191 14.112-27.359c0 0 23.04-25.632 28.224-23.328 0 0-36.288 31.103-36.576 72.574 0 0-5.184 27.936 14.688 42.047l14.688 9.792 8.064-10.08-0.576 5.76 3.744 1.44-5.76 2.016-1.152 3.744 22.176 7.776s-20.448 0.576-27.936-5.472l-4.032-0.576s-0.576 7.2 15.84 10.944z" fill="#373435"/>
<path d="m522.49 261.56s13.823 1.152 19.007 5.76v12.959s-4.032 1.44-4.608-4.032c0 0-3.743-6.623-7.775-7.199 0 0-9.504-5.76-6.336-7.488z" fill="#E18C4D"/>
<path d="m543.8 268.18 0.289 11.231s1.727 1.44 2.879-0.576l1.44-4.895 13.536-10.368s0.576-1.44-2.88-1.728c0 0-3.744-1.152-15.552 6.336z" fill="#E18C4D"/>
<path d="m525.37 201.08s-11.52 28.511-7.488 47.518c0 0-4.32-11.807-1.44-28.223 0 0 4.032-18.431 8.928-19.295z" fill="#373435"/>
<path d="m564.54 201.08s5.184 24.191 2.304 41.182l1.728 7.488 4.896-11.807-1.44-6.336 1.728-16.128s4.032 4.896 8.064 29.087l4.608 5.76-2.88-28.223-4.32-3.456-6.048-8.64s-4.608-13.535-8.352-10.079l-0.288 0.864z" fill="#373435"/>
<path d="m498.3 184.66s-0.864 7.488 6.624 8.64c0 0 6.048-1.44 5.76-4.608 0 0-6.336-9.792-12.384-4.032z" fill="#B97542"/>
<path d="m500.31 183.51s0.288 8.928 7.2 4.896l1.44-2.592s-5.184-4.608-8.64-2.304z" fill="#373435"/>
<path d="m438.39 258.39s6.048 52.991 69.12 124.12l-39.168-33.695s-57.023-80.926-29.952-90.142z" fill="#373435"/>
<path d="m415.35 313.4s19.871 82.942 90.143 99.646c0 0-6.048 17.279-45.216-9.216 0 0-41.759-31.967-45.215-90.142z" fill="#373435"/>
<path d="m417.95 419.09s26.495 21.311 52.415 15.839c0 0-6.624 13.248-49.823 0l-2.592-15.839z" fill="#373435"/>
<path d="m428.89 467.18s39.456-8.063 56.736-2.303c0 0-20.736 0.576-36.576 9.215l-13.824 15.84-6.336-23.04z" fill="#373435"/>
<path d="m445.3 516.14 38.592-9.792s-27.936 22.176-28.8 28.8l-9.792-19.008z" fill="#373435"/>
<path d="m462.3 550.7 38.016-22.463-16.128 19.871-7.2-0.864-4.896 8.352-2.304-8.064-4.608 12.096z" fill="#373435"/>
<path d="m427.45 534-0.864-7.488-10.943-12.384-1.728-12.959-5.184 10.079-1.44 4.32 4.896 0.576-4.032 22.176 6.048-13.824-2.592 16.704 9.791-14.976 2.592 4.032-12.959 14.687 8.064-0.576-9.792 9.216 2.304 3.168s10.943-6.624 15.839-23.039z" fill="#373435"/>
<path d="m427.16 483.6-3.455-10.656-1.44 12.96-2.592-15.552-4.32 10.944 0.864-17.568-4.032 12.96 0.864-16.703-4.032 6.623-1.728-14.111 0.576-26.496 4.32-6.623s11.52 57.598 14.975 64.51z" fill="#373435"/>
<path d="m116.12 462.87 15.84 18.143s17.28 25.343 35.712 11.808c0 0 4.032-4.32-6.336-8.064 0 0-28.224-8.064-30.528-24.191 0 0-8.928-10.08-14.976 2.304z" fill="#373435"/>
<path d="m119.58 397.2s5.184 47.231 28.8 51.263l15.84-0.864 11.52 7.2 4.32-6.336s9.215-3.456-0.576-9.792l-9.216-7.488-1.728-6.047-10.944 12.383 3.456-8.928-4.896-2.304-7.2 4.896v-4.896l-5.76 3.168 3.168-6.335-6.624 0.864 0.576-4.32-5.184 4.32 2.304-11.808-5.184 8.064v-11.808l-4.32 5.184s-3.456-25.631-8.064-16.416z" fill="#373435"/>
<path d="m123.32 348.53s-4.896 20.447 4.032 34.559l-1.728 6.624 6.624-0.864-0.864 12.959 4.32-7.2-0.864 10.656 4.32-8.064-1.44 9.792 8.352-7.2s12.96 23.328 24.768 5.184l1.728 8.064 8.064-2.304 4.32-0.864 3.168-8.352-3.168-5.184-10.944 0.576s-3.456-4.032-10.08-4.896l-19.008-10.943s-15.552-20.448-14.976-35.711v-10.08l-17.28-39.743-0.576 14.112 0.864 20.735h1.728l0.864 10.656 2.592-2.592 4.896 10.656z" fill="#373435"/>
<path d="m113.82 292.95 3.456-11.808 0.864-7.199-5.76-56.735 1.44-6.336-7.2 21.6s6.048 49.534 7.2 60.19z" fill="#373435"/>
<path d="m146.08 54.204s-41.472 43.199-29.664 146.01c0 0 6.048 106.56 38.592 150.91 0 0 22.176 34.559 38.879 34.847l4.32-23.328-1.728-8.064-4.896 4.32-4.031-9.791-2.592 2.304-5.76-10.656-4.32 4.032v-14.688l-4.896 4.32 3.168-10.656-7.2 5.184s-7.2-14.111-6.624-33.695c0 0-28.224-37.151-28.8-65.95 0 0-11.52-65.374-1.44-113.76l-1.44-2.592 4.896-8.928-4.32 1.44s10.08-45.215 17.568-51.839z" fill="#373435"/>
<path d="m173.72 34.621s-20.736 18.72-25.632 42.335l-8.064 11.808 4.32-4.32-4.32 17.279 3.456-7.2-4.032 20.736 2.592-4.032-4.32 18.143 3.456-1.727-8.064 20.447 6.624-11.52-5.184 43.199s10.08-42.911 10.656-53.566c0 0 8.064-74.302 28.224-91.87z" fill="#373435"/>
<path d="m227.29 22.237s-40.608 2.592-50.399 32.831c0 0 35.711-31.391 50.399-32.831z" fill="#373435"/>
<path d="m205.98 41.821s-26.207 11.807-31.391 32.831c0 0-10.944 11.52-14.976 37.151l-11.808 45.503-4.896 36.287 11.808-48.671-0.864 18.144-1.44 11.807-4.032 18.144-5.76 9.791-0.576 10.08 3.168 25.632 2.592 24.767 6.624 3.456 8.352 26.207 11.808 24.767 10.944 13.824-10.08-21.599-7.488-38.015-4.32-1.44 2.304-8.064h-3.456l2.592-9.216-6.624-7.2-3.456-24.191v-13.248l2.304-8.927 2.592-2.592s1.44-29.088 3.456-60.479c0 0 0.864-48.958 8.352-52.702l-2.304 45.214-2.304 34.559 0.864 14.688-0.576 4.032-2.304 7.2 2.592-1.44-3.168 12.959 3.456-6.047-1.728 19.871-0.864 20.448 6.336 36.287 12.384 42.91 6.335 9.792 5.184 2.592 10.944-6.048-0.576-15.839-5.184 13.247s-4.896-9.215 2.304-16.703c0 0-10.944 8.928-11.52 18.143l-2.304-6.624-1.44-3.167 0.576-5.76-4.031-5.184 3.455-12.96-3.455 1.728 1.728-18.431-1.44 2.304-4.896-14.976-3.168-15.84-0.576-14.687 3.168-11.52 6.336 26.207 4.031 14.688 0.576 12.96 5.76-5.76 2.304-21.312-3.168 2.304-1.44-13.823-2.592 4.896v-9.216l-1.728 0.576-0.864-6.336-2.303 1.728 0.576-8.928 3.167-11.808 0.864-4.319-3.167 0.576 1.727-5.184 2.304-4.32-3.456-2.592 5.184-10.656-5.184-0.864 9.216-11.807-5.184-0.864 4.896-9.216 0.864-5.76 4.896-9.216-3.168-2.304 10.08-8.927-8.064 1.439 1.728-12.671 1.44-19.872 6.624-17.279s-15.552 3.168-19.584 13.823l-2.304 12.96 5.184-0.576-2.592 14.688-3.168 4.32 3.168 4.319-4.32 10.656-4.319 15.552s-2.304 15.551-3.168 24.767l-3.168 9.216 3.168-1.728-3.168 10.08 3.168-4.896 0.864 7.2-1.44 7.199-4.896 0.576-2.592-10.079s-2.304-25.344 4.032-44.351c0 0 3.456-65.374 11.519-75.742 0 0 11.52-27.359 17.568-30.815z" fill="#373435"/>
<path d="m201.37 70.044s7.2-22.175 28.8-28.223l-7.2-0.864s30.816-16.416 55.584-12.384c0 0-29.664 8.928-38.016 14.976 0 0-29.088 9.215-39.456 26.495z" fill="#373435"/>
<path d="m247.16 49.597s-24.192 5.759-29.664 16.703l14.112-5.76s-16.704 10.656-19.584 18.144l1.728 0.864-4.32 10.944-3.456 18.719s31.392-55.295 41.184-59.614z" fill="#373435"/>
<path d="m319.16 39.229s-57.023 7.488-76.607 48.671l-12.384 10.079-18.144 36.287 3.168-17.279 10.656-19.872h-5.76l10.656-5.76-1.728-3.455 10.944-6.336-9.216-1.44 8.928-7.2 1.728-4.896 8.352-5.76 5.76-9.216s34.56-21.599 63.647-14.111z" fill="#373435"/>
<path d="m201.37 224.7 11.52-30.527s27.936-71.71 32.256-73.726l10.08-18.432-25.344 14.112v7.488l-5.76 9.215-8.352 8.352-1.728 7.488-1.728 6.336-4.32 20.735-3.168 15.84-2.304 3.168 0.864 2.592-3.168 6.047 0.576 8.064 0.576 13.248z" fill="#373435"/>
<path d="m258.68 113.53s24.192-43.487 54.719-50.975c0 0-9.216-3.456-22.463 2.592l-20.736 16.416-10.08 10.943 2.304 0.576-4.32 7.488 2.304 0.576-4.32 8.928s-4.896 19.007 3.168 3.456z" fill="#373435"/>
<path d="m259.55 125.34 6.624-9.792-0.864-3.168 7.2-6.048-3.168-4.032 8.352-2.592 1.728-6.336 8.064-5.184 17.567-14.111 32.832-13.248-1.728-3.168-15.552 2.592 11.808-6.624-4.896-3.168h-10.08l3.456-4.319 15.552-0.864 20.448 11.807s-69.119 28.8-97.343 67.967z" fill="#373435"/>
<path d="m369.85 74.94s-38.016-4.032-53.856 18.143c0 0-9.792-1.728-15.551 8.352l-24.768 36.287s-12.384 4.896-22.464 25.632l-19.584 28.799 0.864 4.032-7.2 21.599-3.168 10.08 2.592 4.032-6.624 9.215-0.576 10.08 1.44 11.52 4.032 15.839 3.168 20.448s18.144 27.935 45.216 51.263l38.879 26.495s23.328 14.975 53.856 4.32l-16.416-21.6s-21.312-15.839-20.448-50.974l-4.896 22.175 1.728 4.32 4.032 15.552 10.08 9.791 5.184 8.352s-17.28 1.44-23.04-4.896c0 0-4.32-4.32 0.576-6.336 0 0-16.704-27.071-8.928-56.734 0 0-7.2-61.343-2.304-69.118l5.184-3.456 4.032 33.983s0.576-98.205 15.552-120.38c0 0 26.208-50.111 70.272-53.566 0 0-23.328-4.32-41.184 6.047l-21.312 13.248 10.944-4.32-20.448 16.416 10.08-3.456-14.976 13.823 3.456 1.728-9.792 17.28-0.864 11.52-8.064 61.342s-10.943 8.928-17.279 29.663l-4.896 19.008-0.864 8.063 8.064-9.791-8.928 19.871 0.864 3.456 5.184-5.76-5.184 12.384-0.576 10.944-0.864 4.895 6.624-7.487-3.168 8.351-2.592 5.76 0.576 15.552 6.624 17.567 14.975 7.2 2.592 5.184s-26.495-10.08-37.727-21.311c0 0-24.768-23.904-29.088-52.991l-7.488-42.047-7.488 13.824-3.456-6.336 7.488-10.944-0.576-14.687 5.184-6.624 2.592-16.416 4.896-12.383 7.488-30.528 12.384-22.175-7.2 23.039-11.52 48.095-1.44 18.432 4.32-22.464 8.064-30.527 7.488-10.944 7.488-10.079-3.168-1.44 6.048-9.216 2.304-10.08 11.808-19.871 7.2-17.568 9.791-6.624-6.047 15.84-4.032 11.808-6.048 17.567-5.76 5.76-1.44 6.048-2.304 11.52-3.456 5.759-0.864 6.048-2.304 6.336 0.864 5.76-2.592 7.488s-3.456 9.791-5.76 17.279l-8.928 14.976-0.864 11.808-2.304 7.487 0.864 10.08v8.352 10.08l2.304 14.687 0.576 12.96 2.304 10.656 0.864-14.976 0.864-10.08-0.576-9.216-1.728-23.903 2.592-19.871 5.76-13.824 5.76-16.704 7.488-28.799 8.064-19.007 4.896-10.944 2.304-15.84 6.335-6.623-0.864-2.592 8.064-7.488 8.064-10.656-7.2 1.728 5.184-7.2 10.08-4.032-2.592-3.456 14.976-7.199s15.84-10.08 24.192-8.928z" fill="#373435"/>
<path d="m362.36 84.156s-38.592 21.599-57.024 89.853l-10.079 19.008 4.896-2.304-8.928 16.703-6.336 12.096 5.184-4.896-8.352 17.568-2.304 45.503-1.728 18.143 4.032-4.896-4.896 15.552 6.336-10.656-4.896 19.008 2.304 4.895 1.728 5.76 1.728-12.383 1.44-7.488 0.864-6.624 0.576-5.184v-6.624l4.032-10.079 0.864-19.584 7.2-29.663 4.032-13.824 3.167-14.975 2.592-13.248 1.44-10.944 3.168-10.655s19.872-65.375 49.536-80.062z" fill="#373435"/>
<path d="m331.55 259.83 7.2 31.391 24.192 46.943 14.112 36.575 0.864 6.624-4.32-6.336-5.76-4.32-3.168-4.896-2.592-3.168-0.864-6.624-6.624 0.864-0.576-4.895-3.168-5.184-8.064-19.872-6.048-13.247-3.168-13.248-4.32-8.064-0.576-10.656 0.576-7.199s-4.032-12.96 2.304-14.976z" fill="#373435"/>
<path d="m384.25 376.18s-3.168-23.903-7.2-25.631c0 0-16.416-22.464-18.432-31.392l-14.112-38.591s-10.944-49.534-6.048-76.894c0 0 3.168-44.638 16.416-62.206l19.584-27.359-11.52 21.599-8.352 14.688 2.592 3.168-6.624 12.383-2.592 10.08 5.184-8.064-5.76 20.448-0.576 32.255 9.792 66.814s4.32 28.223 16.416 46.367c0 0 14.112 20.447 11.52 42.335z" fill="#373435"/>
<path d="m396.92 360.05s-8.064-21.599-14.976-24.767c0 0-17.28-23.039-15.552-33.119l5.184 3.456h4.32l2.304 10.943s20.736 13.824 18.432 43.487z" fill="#373435"/>
<path d="m381.08 307.06s-21.312-43.775-18.432-82.654c0 0-5.184-101.37 31.392-123.26l-6.624 9.792-6.624 11.52v8.927l3.168-4.031-4.32 13.823-1.728 15.84-4.896 27.359v41.183s1.44 54.43 8.352 81.79z" fill="#373435"/>
<path d="m393.75 204.54-5.184 27.072 0.576 15.551s-6.048 5.184-0.576 23.328l10.656 25.631-0.576-20.447-4.032-34.56s-4.896-24.191-0.864-36.575z" fill="#373435"/>
<path d="m406.14 98.843-13.248 13.824-4.896 24.479-0.864 12.384-2.592 12.384 2.592-2.592-0.576 14.975 1.44 19.872 3.168 3.168-0.864-7.488s0.864-41.471 3.456-45.503l4.896-10.08-4.32 2.592 3.168-10.656 3.168-3.167-1.728-3.456 3.168-6.624v-5.184l4.32-8.352z" fill="#373435"/>
<path d="m438.39 79.836s-30.527 27.935-37.727 64.51l-1.44 17.568 6.624-20.736 6.624-15.839s18.143-39.743 25.631-45.503z" fill="#373435"/>
<path d="m425.72 117.85s-17.567 44.639-15.551 110.88c0 0 1.44 65.95 21.311 98.493 0 0-18.719-55.582-14.111-83.518l-1.728-35.711 1.44-25.631 5.184-21.599-4.896 8.063s6.623-45.214 8.351-50.974z" fill="#373435"/>
<path d="m440.41 123.9s-23.039 39.455-8.928 91.581l7.2-24.191s-0.864-41.471 4.032-58.463c0 0 0.576-10.079-2.304-8.927z" fill="#373435"/>
<path d="m190.43 449.62s30.528-1.728 26.496 2.592l-9.792 5.184 17.28 0.576 0.576 4.896-23.04 4.031 4.896-4.031-2.592-4.032-18.144-1.44 4.32-8.064z" fill="#373435"/>
<path d="m195.61 483.02s25.344-5.76 28.224-1.44l-0.576 10.944-5.184-6.048-7.488 1.728s2.304 8.928 7.488 6.624c0 0-8.064 6.623-9.792 0 0 0-3.168 7.487-10.656 4.896 0 0 10.944-4.896 10.08-8.352l-0.864-3.168-4.32 2.304-1.44 5.184-1.728-7.2-5.184 2.304 1.44-8.064z" fill="#373435"/>
<path d="m119.58 508.66s26.208 1.44 36.576 18.432l14.976 12.959-13.248-6.623-16.704-8.352s-8.928-11.808-21.312-10.08l-0.576-6.048z" fill="#373435"/>
<path d="m231.61 426.87-7.488-0.863-8.064-3.168-9.792-2.304v-5.76l-0.576-3.456 4.896-2.304s6.048 10.944 13.248 8.064l4.32-5.76s7.488 4.032 11.808 2.592c0 0 18.144-2.592 21.312-14.976l-5.76 2.304 1.44-6.624-7.488 5.184-9.792-0.576-5.76 2.304 3.168-10.656-10.08 7.488-17.28-17.567 9.216 20.735-0.864 9.216s-6.336-2.304-6.624-5.184l3.456-5.76-14.688-14.687-2.304 7.199 9.216 12.96-5.76 6.336-1.728-3.456-2.304 4.896-1.728-4.032-4.32 19.583 7.2-1.728 1.728 9.216 8.064-7.488 0.576 7.2 5.184-4.32-2.592 7.2 7.2-5.184 6.336 4.032s5.184-5.76 6.624-9.792z" fill="#373435"/>
<path d="m220.38 373.01 5.184 4.032-0.864 3.168 8.064-1.728-4.32 5.76 8.928-2.592 1.728 5.184 6.336-3.456 8.064 3.168 5.76 1.728h5.76l13.248-4.32 2.304-4.32h-6.336l-6.048 0.576-1.728-7.2-8.928 6.048-5.76-6.048-7.488 1.728-2.592-3.456 0.864-6.336-7.2 3.456-1.44-6.048-5.184 6.624-4.32-6.048s-7.2 0.576-3.456 10.656z" fill="#373435"/>
<path d="m93.66 243.99-1.44 15.84 12.096 22.463-5.472-64.222z" fill="#373435"/>
<path d="m87.036 254.36 2.016 16.704-2.592 19.295-15.264 2.016 4.032-8.64v-8.639l2.592-2.592 1.44-4.608-2.592-3.456s6.048-9.216 10.656-10.08z" fill="#373435"/>
<path d="m73.788 258.39-1.44 11.232-12.671 19.295-13.248-9.216 4.032-6.623 7.2-11.232 8.64-5.472z" fill="#373435"/>
<path d="m59.101 251.19-8.064 9.216-11.232 10.656-5.184-11.232s13.824-11.808 24.48-8.64z" fill="#373435"/>
<path d="m49.021 239.96s-16.704 4.607-17.856 11.231l-9.216-29.087 6.624-0.576 9.216 4.032 2.016-3.456 2.592 1.44 6.624 16.704z" fill="#373435"/>
<path d="m38.653 207.7h-3.456l-2.304 7.2-8.064-9.792-6.048-4.896-4.032-2.591-1.44-8.352s2.592-14.112 12.384-12.96l8.928 1.44 4.032 29.951z" fill="#373435"/>
<path d="m33.469 165.08-4.032 5.184-4.032-10.079-3.168 6.623-3.456-7.487-5.184 2.304s-2.304-18.432 5.184-18.432l14.688 3.168v19.007z" fill="#373435"/>
<path d="m34.909 137.72-4.896-2.304-5.76 3.168-0.864-8.928-5.76 3.456s8.064-21.599 22.176-31.103c0 0 16.416-2.592 13.824 5.76 0 0-1.44 6.048-6.624 8.352 0 0-8.352 5.76-11.808 21.311z" fill="#373435"/>
</svg>
